# xmcd
#
# Track frame offsets:
# 150
# 18500
# 42090
# 62477
#
# Disc length: 1087 seconds
#
#
# Revision: 4
# Processed by: cddbd v1.5.1PL2 Copyright (c) Steve Scherf et al.
# Submitted via: FreeRIP 2.945 
#
DISCID=28043d04
DTITLE=Tony Toni Toné -  - If I had no loot
DYEAR=1990
DGENRE=R&B
TTITLE0=Tony Toni Toné - If I had no loot (Radio edit)
TTITLE1=Tony Toni Toné - If I had no loot (Extended version)
TTITLE2=Tony Toni Toné - Feels good (Edit)
TTITLE3=Tony Toni Toné - The blues (The mix)
EXTD=
EXTT0=
EXTT1=
EXTT2=
EXTT3=
PLAYORDER=
